<?xml version="1.0" encoding="UTF-8" standalone="no"?>
<!DOCTYPE svg PUBLIC "-//W3C//DTD SVG 1.1//EN" "http://www.w3.org/Graphics/SVG/1.1/DTD/svg11.dtd">
<svg version="1.1" xmlns="http://www.w3.org/2000/svg" xmlns:xlink="http://www.w3.org/1999/xlink" preserveAspectRatio="xMidYMid meet" viewBox="0 0 640 640" width="640" height="640"><defs><path d="M862.21 330.9C862.21 611.66 624.1 839.6 330.83 839.6C37.55 839.6 -200.55 611.66 -200.55 330.9C-200.55 50.13 37.55 -177.81 330.83 -177.81C624.1 -177.81 862.21 50.13 862.21 330.9Z" id="c5mB2Nrmk"></path><path d="M483.41 348.56C476.05 370.23 452.49 381.86 430.82 374.5C409.15 367.15 397.53 343.58 404.88 321.91C412.24 300.24 435.8 288.62 457.47 295.97C479.14 303.33 490.76 326.89 483.41 348.56Z" id="c3VimLbZku"></path><path d="M494.88 310.24C494.88 324.03 483.51 335.24 469.51 335.24C455.51 335.24 444.15 324.03 444.15 310.24C444.15 296.44 455.51 285.24 469.51 285.24C483.51 285.24 494.88 296.44 494.88 310.24Z" id="g6EIsiXqC"></path><path d="M330.83 449.8C330.83 464.94 317.71 477.24 301.56 477.24C285.41 477.24 272.29 464.94 272.29 449.8C272.29 434.65 285.41 422.36 301.56 422.36C317.71 422.36 330.83 434.65 330.83 449.8Z" id="h3c8oYnuvM"></path><path d="M560 506.36C560 537.99 534.04 563.68 502.07 563.68C470.1 563.68 444.15 537.99 444.15 506.36C444.15 474.72 470.1 449.04 502.07 449.04C534.04 449.04 560 474.72 560 506.36Z" id="a2BXWICQP"></path><path d="M343.02 278.54C343.02 301.42 324.45 320 301.56 320C278.68 320 260.1 301.42 260.1 278.54C260.1 255.65 278.68 237.07 301.56 237.07C324.45 237.07 343.02 255.65 343.02 278.54Z" id="b7aUJpGoA"></path><path d="M356.29 549.8C356.29 612.73 307.66 663.82 247.76 663.82C187.85 663.82 139.22 612.73 139.22 549.8C139.22 486.87 187.85 435.77 247.76 435.77C307.66 435.77 356.29 486.87 356.29 549.8Z" id="cv99ycMrr"></path><path d="M663.9 350.24C663.9 379.18 640.62 402.68 611.95 402.68C583.28 402.68 560 379.18 560 350.24C560 321.29 583.28 297.8 611.95 297.8C640.62 297.8 663.9 321.29 663.9 350.24Z" id="a11SDsyFz1"></path><path d="M634.94 110.41C647.32 110.41 657.36 120.45 657.36 132.83C657.36 218.28 657.36 452.2 657.36 537.65C657.36 550.03 647.32 560.07 634.94 560.07C501.52 560.07 123.7 560.07 -9.72 560.07C-22.1 560.07 -32.14 550.03 -32.14 537.65C-32.14 452.2 -32.14 218.28 -32.14 132.83C-32.14 120.45 -22.1 110.41 -9.72 110.41C123.7 110.41 501.52 110.41 634.94 110.41Z" id="d19ztddg3"></path></defs><g><g><g><use xlink:href="#c5mB2Nrmk" opacity="1" fill="#ff3712" fill-opacity="1"></use></g><g><use xlink:href="#c3VimLbZku" opacity="1" fill="#ff6a4e" fill-opacity="0.67"></use></g><g><use xlink:href="#g6EIsiXqC" opacity="1" fill="#ff694e" fill-opacity="0.67"></use></g><g><use xlink:href="#h3c8oYnuvM" opacity="1" fill="#ff694e" fill-opacity="0.67"></use></g><g><use xlink:href="#a2BXWICQP" opacity="1" fill="#ff694e" fill-opacity="0.67"></use></g><g><use xlink:href="#b7aUJpGoA" opacity="1" fill="#ff694e" fill-opacity="0.67"></use></g><g><use xlink:href="#cv99ycMrr" opacity="1" fill="#ff694e" fill-opacity="0.67"></use></g><g><use xlink:href="#a11SDsyFz1" opacity="1" fill="#ff694e" fill-opacity="1"></use></g><g><use xlink:href="#d19ztddg3" opacity="1" fill="#ff694e" fill-opacity="0.69"></use></g></g></g></svg>