<?xml version="1.0" encoding="UTF-8" standalone="no"?>
<!DOCTYPE svg PUBLIC "-//W3C//DTD SVG 1.1//EN" "http://www.w3.org/Graphics/SVG/1.1/DTD/svg11.dtd">
<svg version="1.1" xmlns="http://www.w3.org/2000/svg" xmlns:xlink="http://www.w3.org/1999/xlink" preserveAspectRatio="xMidYMid meet" viewBox="0 0 640 640" width="640" height="640"><defs><path d="M0 0L640 0L640 640L0 640L0 0Z" id="b6VTmA5fAF"></path><path d="M482.21 623.85C526.49 695.14 627.31 712.6 707.4 662.85C787.49 613.1 816.52 514.98 772.24 443.69C727.95 372.4 627.13 354.94 479.52 296C466.95 454.44 437.93 552.56 482.21 623.85Z" id="e1Lm3Rwv8m"></path><path d="M105.31 427.55L101.94 424.12L98.45 420.86L94.83 417.78L91.1 414.87L87.26 412.14L83.31 409.59L79.27 407.2L75.13 405L70.9 402.97L66.59 401.11L62.21 399.44L57.75 397.94L53.23 396.61L48.65 395.47L44.01 394.5L39.33 393.72L34.6 393.11L29.84 392.68L25.04 392.44L20.22 392.37L15.38 392.48L10.53 392.78L5.67 393.26L0.8 393.92L-4.06 394.76L-8.92 395.78L-13.76 396.99L-18.58 398.38L-23.38 399.96L-28.14 401.72L-32.87 403.66L-37.56 405.79L-42.19 408.11L-46.78 410.61L-51.3 413.3L-55.76 416.18L-60.15 419.24L-64.46 422.49L-68.65 425.9L-72.69 429.43L-76.58 433.09L-80.33 436.88L-83.94 440.79L-87.42 444.83L-90.79 449.01L-94.04 453.31L-97.19 457.74L-100.24 462.31L-103.19 467.01L-106.07 471.84L-108.86 476.8L-111.59 481.9L-114.25 487.14L-116.86 492.51L-119.42 498.02L-121.94 503.67L-124.43 509.46L-126.89 515.38L-129.33 521.45L-131.76 527.66L-134.18 534.01L-136.6 540.5L-139.04 547.13L-141.49 553.91L-143.96 560.84L-146.46 567.91L-149.01 575.13L-151.59 582.49L-154.23 590.01L-156.93 597.67L-159.7 605.48L-162.54 613.44L-165.46 621.56L-168.46 629.82L-171.57 638.24L-174.77 646.81L-178.09 655.54L-181.52 664.42L-172.07 663.22L-162.81 662.1L-153.72 661.04L-144.8 660.05L-136.05 659.11L-127.48 658.23L-119.06 657.38L-110.82 656.57L-102.73 655.79L-94.8 655.03L-87.03 654.29L-79.42 653.55L-71.95 652.82L-64.64 652.08L-57.47 651.33L-50.44 650.56L-43.56 649.76L-36.81 648.94L-30.2 648.07L-23.73 647.16L-17.38 646.19L-11.17 645.17L-5.08 644.08L0.88 642.91L6.72 641.67L12.45 640.34L18.05 638.92L23.54 637.39L28.92 635.76L34.19 634.02L39.36 632.16L44.42 630.17L49.37 628.04L54.23 625.78L58.99 623.36L63.66 620.8L68.23 618.07L72.72 615.17L77.12 612.1L81.43 608.85L85.62 605.44L89.65 601.92L93.51 598.28L97.21 594.53L100.74 590.68L104.1 586.74L107.29 582.7L110.32 578.58L113.17 574.37L115.85 570.1L118.36 565.75L120.69 561.34L122.85 556.87L124.84 552.35L126.64 547.79L128.27 543.18L129.73 538.54L131 533.87L132.09 529.17L133 524.46L133.73 519.73L134.27 515L134.64 510.26L134.81 505.53L134.8 500.81L134.6 496.1L134.22 491.41L133.64 486.75L132.88 482.13L131.92 477.54L130.77 472.99L129.43 468.49L127.89 464.04L126.16 459.66L124.24 455.34L122.11 451.09L119.79 446.92L117.27 442.83L114.55 438.83L111.63 434.92L108.54 431.15L105.31 427.55ZM65.44 476.92L66.64 478.85L67.74 480.83L68.74 482.84L69.66 484.89L70.48 486.97L71.2 489.07L71.84 491.2L72.38 493.36L72.84 495.53L73.2 497.72L73.47 499.93L73.65 502.15L73.75 504.38L73.75 506.62L73.67 508.86L73.5 511.1L73.24 513.34L72.89 515.58L72.46 517.82L71.95 520.04L71.34 522.25L70.66 524.45L69.88 526.63L69.03 528.8L68.09 530.94L67.06 533.05L65.96 535.14L64.77 537.2L63.5 539.23L62.15 541.22L60.72 543.17L59.2 545.08L57.61 546.95L55.94 548.78L54.19 550.55L52.36 552.27L50.45 553.94L48.47 555.56L46.42 557.1L44.35 558.55L42.23 559.91L40.09 561.18L37.92 562.37L35.72 563.47L33.5 564.48L31.26 565.4L29.01 566.23L26.73 566.98L24.45 567.64L22.16 568.21L19.86 568.69L17.55 569.09L15.25 569.41L12.95 569.63L10.65 569.77L8.35 569.83L6.07 569.79L3.8 569.68L1.54 569.47L-0.7 569.19L-2.92 568.81L-5.11 568.36L-7.28 567.82L-9.42 567.19L-11.53 566.48L-13.61 565.68L-15.65 564.81L-17.66 563.84L-19.62 562.8L-21.53 561.67L-23.4 560.46L-25.22 559.17L-26.99 557.79L-28.7 556.33L-30.36 554.79L-31.95 553.16L-33.48 551.46L-34.95 549.67L-36.33 547.82L-37.62 545.92L-38.81 543.99L-39.91 542.01L-40.92 540L-41.83 537.95L-42.65 535.87L-43.38 533.77L-44.01 531.64L-44.56 529.48L-45.01 527.31L-45.37 525.12L-45.64 522.91L-45.83 520.69L-45.92 518.46L-45.93 516.22L-45.84 513.98L-45.67 511.74L-45.41 509.5L-45.07 507.26L-44.64 505.02L-44.12 502.8L-43.52 500.59L-42.83 498.39L-42.06 496.21L-41.2 494.04L-40.26 491.9L-39.24 489.79L-38.13 487.7L-36.94 485.64L-35.67 483.61L-34.32 481.62L-32.89 479.67L-31.38 477.76L-29.79 475.89L-28.11 474.06L-26.36 472.29L-24.53 470.57L-22.63 468.9L-20.64 467.28L-18.6 465.74L-16.52 464.29L-14.41 462.93L-12.26 461.66L-10.09 460.47L-7.9 459.37L-5.68 458.36L-3.44 457.44L-1.18 456.61L1.09 455.86L3.38 455.2L5.67 454.63L7.97 454.15L10.27 453.75L12.58 453.43L14.88 453.21L17.18 453.07L19.47 453.01L21.76 453.05L24.03 453.16L26.28 453.37L28.52 453.65L30.74 454.03L32.94 454.48L35.11 455.03L37.25 455.65L39.36 456.36L41.44 457.16L43.48 458.03L45.48 459L47.44 460.04L49.36 461.17L51.23 462.38L53.05 463.68L54.82 465.05L56.53 466.51L58.18 468.05L59.78 469.68L61.31 471.38L62.77 473.17L64.16 475.02L65.44 476.92Z" id="a2T9L9dzYK"></path><path d="M186.82 85.78C186.82 143.39 136.68 190.17 74.92 190.17C13.17 190.17 -36.97 143.39 -36.97 85.78C-36.97 28.16 13.17 -18.62 74.92 -18.62C136.68 -18.62 186.82 28.16 186.82 85.78Z" id="ayZDDNsGA"></path><path d="M513.41 313.78C513.41 524.52 367.7 695.6 188.23 695.6C8.76 695.6 -136.94 524.52 -136.94 313.78C-136.94 103.05 8.76 -68.04 188.23 -68.04C367.7 -68.04 513.41 103.05 513.41 313.78Z" id="b1pQfzjGZz"></path><path d="M721.98 167.49L728.36 161.27L734.56 155L740.56 148.69L746.36 142.34L751.97 135.96L757.38 129.56L762.58 123.14L767.57 116.71L772.35 110.29L776.92 103.87L781.27 97.46L785.39 91.07L789.3 84.72L792.98 78.39L796.43 72.11L799.64 65.88L802.62 59.71L805.37 53.6L807.87 47.56L810.12 41.6L812.12 35.72L813.88 29.94L815.38 24.26L816.62 18.69L817.6 13.23L818.32 7.89L818.77 2.68L818.95 -2.4L818.85 -7.33L818.48 -12.11L817.83 -16.73L816.9 -21.19L815.68 -25.48L814.18 -29.58L812.38 -33.5L810.29 -37.23L807.9 -40.76L805.2 -44.08L802.24 -47.15L799.02 -49.95L795.58 -52.48L791.9 -54.74L788.01 -56.73L783.9 -58.46L779.59 -59.92L775.08 -61.13L770.38 -62.07L765.5 -62.76L760.44 -63.2L755.21 -63.38L749.82 -63.32L744.28 -63.01L738.8 -62.47L799.77 -203.83L736.17 -185.14L675.2 -43.78L668.65 -40.78L661.81 -37.45L654.92 -33.91L648 -30.15L641.04 -26.19L634.06 -22.01L627.06 -17.62L620.05 -13.03L613.04 -8.24L606.03 -3.25L599.04 1.95L592.06 7.34L585.12 12.92L578.21 18.69L571.34 24.66L564.59 30.75L558.02 36.91L551.64 43.13L545.44 49.4L539.44 55.71L533.64 62.06L528.03 68.44L522.62 74.85L517.42 81.27L512.43 87.69L507.65 94.12L503.08 100.54L498.73 106.94L494.61 113.33L490.7 119.69L487.02 126.01L483.57 132.29L480.36 138.52L477.38 144.7L474.63 150.8L472.13 156.84L469.88 162.8L467.88 168.68L466.12 174.46L464.62 180.14L463.38 185.72L462.4 191.18L461.68 196.52L461.23 201.73L461.05 206.8L461.15 211.73L461.52 216.51L462.17 221.14L463.1 225.59L464.32 229.88L465.82 233.99L467.62 237.91L469.71 241.64L472.1 245.16L474.8 248.48L477.76 251.55L480.98 254.35L484.42 256.88L488.1 259.14L491.99 261.14L496.1 262.86L500.41 264.33L504.92 265.53L509.62 266.48L514.5 267.17L519.56 267.6L524.79 267.79L530.18 267.72L535.72 267.41L541.4 266.85L547.22 266.05L553.17 265.01L559.25 263.73L565.44 262.22L571.73 260.47L578.13 258.49L584.62 256.27L591.19 253.84L597.85 251.17L604.57 248.29L611.35 245.18L618.19 241.85L625.08 238.31L632 234.56L638.96 230.59L645.94 226.41L652.94 222.03L659.95 217.44L666.96 212.64L673.97 207.65L680.96 202.46L687.94 197.07L694.88 191.48L701.79 185.71L708.66 179.74L715.41 173.65L721.98 167.49ZM673.86 157.29L669.58 160.74L665.28 164.06L660.96 167.27L656.64 170.35L652.31 173.3L647.99 176.14L643.67 178.84L639.36 181.42L635.06 183.87L630.79 186.18L626.54 188.37L622.32 190.42L618.14 192.34L613.99 194.12L609.89 195.76L605.83 197.27L601.83 198.63L597.88 199.85L593.99 200.93L590.17 201.87L586.43 202.66L582.75 203.3L579.16 203.79L575.65 204.14L572.24 204.33L568.91 204.37L565.69 204.26L562.57 203.99L559.55 203.56L556.65 202.98L553.87 202.24L551.21 201.33L548.68 200.27L546.27 199.04L544.01 197.64L541.88 196.08L539.9 194.36L538.07 192.46L536.4 190.41L534.93 188.24L533.64 185.94L532.53 183.52L531.6 180.98L530.85 178.34L530.27 175.59L529.87 172.73L529.64 169.78L529.59 166.74L529.7 163.61L529.97 160.4L530.42 157.1L531.02 153.73L531.79 150.29L532.71 146.79L533.8 143.22L535.03 139.59L536.42 135.92L537.97 132.19L539.66 128.42L541.5 124.61L543.48 120.77L545.61 116.89L547.88 112.99L550.29 109.07L552.84 105.13L555.52 101.17L558.34 97.21L561.29 93.25L564.37 89.28L567.58 85.32L570.91 81.37L574.37 77.44L577.95 73.52L581.66 69.62L585.48 65.75L589.42 61.92L593.47 58.12L597.64 54.36L601.87 50.68L606.14 47.11L610.42 43.67L614.72 40.34L619.04 37.14L623.36 34.06L627.69 31.1L632.01 28.27L636.33 25.56L640.64 22.98L644.94 20.54L649.21 18.22L653.46 16.03L657.68 13.98L661.86 12.06L666.01 10.28L670.11 8.64L674.17 7.14L678.17 5.77L682.12 4.55L686.01 3.47L689.83 2.53L693.57 1.74L697.25 1.1L700.84 0.61L704.35 0.26L707.76 0.07L711.09 0.03L714.31 0.15L717.43 0.41L720.45 0.84L723.35 1.42L726.13 2.17L728.79 3.07L731.32 4.14L733.73 5.37L735.99 6.76L738.12 8.32L740.1 10.05L741.93 11.94L743.6 13.99L745.07 16.17L746.36 18.47L747.47 20.89L748.4 23.42L749.15 26.07L749.73 28.82L750.13 31.67L750.36 34.62L750.41 37.66L750.3 40.79L750.03 44.01L749.58 47.3L748.98 50.67L748.21 54.11L747.29 57.62L746.2 61.18L744.97 64.81L743.58 68.49L742.03 72.21L740.34 75.98L738.5 79.79L736.52 83.64L734.39 87.51L732.12 91.41L729.71 95.34L727.16 99.28L724.48 103.23L721.66 107.19L718.71 111.16L715.63 115.12L712.42 119.08L709.09 123.03L705.63 126.97L702.05 130.89L698.34 134.78L694.52 138.65L690.58 142.49L686.53 146.29L682.36 150.05L678.13 153.73L673.86 157.29Z" id="e1XSkHteM"></path></defs><g><g><g><use xlink:href="#b6VTmA5fAF" opacity="1" fill="#ff3712" fill-opacity="1"></use></g><g><use xlink:href="#e1Lm3Rwv8m" opacity="1" fill="#ffffff" fill-opacity="0.16"></use></g><g><use xlink:href="#a2T9L9dzYK" opacity="1" fill="#ffffff" fill-opacity="0.36"></use></g><g><use xlink:href="#ayZDDNsGA" opacity="1" fill="#ffffff" fill-opacity="0.1"></use></g><g><use xlink:href="#b1pQfzjGZz" opacity="1" fill="#ffffff" fill-opacity="0.1"></use></g><g><use xlink:href="#e1XSkHteM" opacity="1" fill="#ffffff" fill-opacity="0.13"></use></g></g></g></svg>