<?xml version="1.0" encoding="UTF-8" standalone="no"?>
<!DOCTYPE svg PUBLIC "-//W3C//DTD SVG 1.1//EN" "http://www.w3.org/Graphics/SVG/1.1/DTD/svg11.dtd">
<svg version="1.1" xmlns="http://www.w3.org/2000/svg" xmlns:xlink="http://www.w3.org/1999/xlink" preserveAspectRatio="xMidYMid meet" viewBox="0 0 640 640" width="640" height="640"><defs><path d="M0 0L640 0L640 640L0 640L0 0Z" id="b6VTmA5fAF"></path><path d="M542.97 649.54C571.55 695.55 652.41 697.01 723.57 652.81C794.73 608.6 829.25 535.47 800.67 489.46C772.09 443.45 691.23 441.99 576.49 416.04C548.91 530.4 514.39 603.53 542.97 649.54Z" id="c2tHsJYFCQ"></path><path d="M105.31 427.55L101.94 424.12L98.45 420.86L94.83 417.78L91.1 414.87L87.26 412.14L83.31 409.59L79.27 407.2L75.13 405L70.9 402.97L66.59 401.11L62.21 399.44L57.75 397.94L53.23 396.61L48.65 395.47L44.01 394.5L39.33 393.72L34.6 393.11L29.84 392.68L25.04 392.44L20.22 392.37L15.38 392.48L10.53 392.78L5.67 393.26L0.8 393.92L-4.06 394.76L-8.92 395.78L-13.76 396.99L-18.58 398.38L-23.38 399.96L-28.14 401.72L-32.87 403.66L-37.56 405.79L-42.19 408.11L-46.78 410.61L-51.3 413.3L-55.76 416.18L-60.15 419.24L-64.46 422.49L-68.65 425.9L-72.69 429.43L-76.58 433.09L-80.33 436.88L-83.94 440.79L-87.42 444.83L-90.79 449.01L-94.04 453.31L-97.19 457.74L-100.24 462.31L-103.19 467.01L-106.07 471.84L-108.86 476.8L-111.59 481.9L-114.25 487.14L-116.86 492.51L-119.42 498.02L-121.94 503.67L-124.43 509.46L-126.89 515.38L-129.33 521.45L-131.76 527.66L-134.18 534.01L-136.6 540.5L-139.04 547.13L-141.49 553.91L-143.96 560.84L-146.46 567.91L-149.01 575.13L-151.59 582.49L-154.23 590.01L-156.93 597.67L-159.7 605.48L-162.54 613.44L-165.46 621.56L-168.46 629.82L-171.57 638.24L-174.77 646.81L-178.09 655.54L-181.52 664.42L-172.07 663.22L-162.81 662.1L-153.72 661.04L-144.8 660.05L-136.05 659.11L-127.48 658.23L-119.06 657.38L-110.82 656.57L-102.73 655.79L-94.8 655.03L-87.03 654.29L-79.42 653.55L-71.95 652.82L-64.64 652.08L-57.47 651.33L-50.44 650.56L-43.56 649.76L-36.81 648.94L-30.2 648.07L-23.73 647.16L-17.38 646.19L-11.17 645.17L-5.08 644.08L0.88 642.91L6.72 641.67L12.45 640.34L18.05 638.92L23.54 637.39L28.92 635.76L34.19 634.02L39.36 632.16L44.42 630.17L49.37 628.04L54.23 625.78L58.99 623.36L63.66 620.8L68.23 618.07L72.72 615.17L77.12 612.1L81.43 608.85L85.62 605.44L89.65 601.92L93.51 598.28L97.21 594.53L100.74 590.68L104.1 586.74L107.29 582.7L110.32 578.58L113.17 574.37L115.85 570.1L118.36 565.75L120.69 561.34L122.85 556.87L124.84 552.35L126.64 547.79L128.27 543.18L129.73 538.54L131 533.87L132.09 529.17L133 524.46L133.73 519.73L134.27 515L134.64 510.26L134.81 505.53L134.8 500.81L134.6 496.1L134.22 491.41L133.64 486.75L132.88 482.13L131.92 477.54L130.77 472.99L129.43 468.49L127.89 464.04L126.16 459.66L124.24 455.34L122.11 451.09L119.79 446.92L117.27 442.83L114.55 438.83L111.63 434.92L108.54 431.15L105.31 427.55ZM65.44 476.92L66.64 478.85L67.74 480.83L68.74 482.84L69.66 484.89L70.48 486.97L71.2 489.07L71.84 491.2L72.38 493.36L72.84 495.53L73.2 497.72L73.47 499.93L73.65 502.15L73.75 504.38L73.75 506.62L73.67 508.86L73.5 511.1L73.24 513.34L72.89 515.58L72.46 517.82L71.95 520.04L71.34 522.25L70.66 524.45L69.88 526.63L69.03 528.8L68.09 530.94L67.06 533.05L65.96 535.14L64.77 537.2L63.5 539.23L62.15 541.22L60.72 543.17L59.2 545.08L57.61 546.95L55.94 548.78L54.19 550.55L52.36 552.27L50.45 553.94L48.47 555.56L46.42 557.1L44.35 558.55L42.23 559.91L40.09 561.18L37.92 562.37L35.72 563.47L33.5 564.48L31.26 565.4L29.01 566.23L26.73 566.98L24.45 567.64L22.16 568.21L19.86 568.69L17.55 569.09L15.25 569.41L12.95 569.63L10.65 569.77L8.35 569.83L6.07 569.79L3.8 569.68L1.54 569.47L-0.7 569.19L-2.92 568.81L-5.11 568.36L-7.28 567.82L-9.42 567.19L-11.53 566.48L-13.61 565.68L-15.65 564.81L-17.66 563.84L-19.62 562.8L-21.53 561.67L-23.4 560.46L-25.22 559.17L-26.99 557.79L-28.7 556.33L-30.36 554.79L-31.95 553.16L-33.48 551.46L-34.95 549.67L-36.33 547.82L-37.62 545.92L-38.81 543.99L-39.91 542.01L-40.92 540L-41.83 537.95L-42.65 535.87L-43.38 533.77L-44.01 531.64L-44.56 529.48L-45.01 527.31L-45.37 525.12L-45.64 522.91L-45.83 520.69L-45.92 518.46L-45.93 516.22L-45.84 513.98L-45.67 511.74L-45.41 509.5L-45.07 507.26L-44.64 505.02L-44.12 502.8L-43.52 500.59L-42.83 498.39L-42.06 496.21L-41.2 494.04L-40.26 491.9L-39.24 489.79L-38.13 487.7L-36.94 485.64L-35.67 483.61L-34.32 481.62L-32.89 479.67L-31.38 477.76L-29.79 475.89L-28.11 474.06L-26.36 472.29L-24.53 470.57L-22.63 468.9L-20.64 467.28L-18.6 465.74L-16.52 464.29L-14.41 462.93L-12.26 461.66L-10.09 460.47L-7.9 459.37L-5.68 458.36L-3.44 457.44L-1.18 456.61L1.09 455.86L3.38 455.2L5.67 454.63L7.97 454.15L10.27 453.75L12.58 453.43L14.88 453.21L17.18 453.07L19.47 453.01L21.76 453.05L24.03 453.16L26.28 453.37L28.52 453.65L30.74 454.03L32.94 454.48L35.11 455.03L37.25 455.65L39.36 456.36L41.44 457.16L43.48 458.03L45.48 459L47.44 460.04L49.36 461.17L51.23 462.38L53.05 463.68L54.82 465.05L56.53 466.51L58.18 468.05L59.78 469.68L61.31 471.38L62.77 473.17L64.16 475.02L65.44 476.92Z" id="a2T9L9dzYK"></path><path d="M513.41 348.41C513.41 540.71 367.7 696.82 188.23 696.82C8.76 696.82 -136.94 540.71 -136.94 348.41C-136.94 156.12 8.76 0 188.23 0C367.7 0 513.41 156.12 513.41 348.41Z" id="bS6ibqWUr"></path><path d="M777.95 117.93L782.7 113.16L787.27 108.33L791.68 103.42L795.91 98.47L799.97 93.46L803.85 88.41L807.55 83.32L811.07 78.19L814.41 73.04L817.57 67.87L820.54 62.69L823.32 57.49L825.91 52.3L828.31 47.11L830.52 41.92L832.54 36.76L834.36 31.61L835.97 26.5L837.39 21.41L838.61 16.37L839.62 11.38L840.43 6.43L841.03 1.55L841.42 -3.28L841.6 -8.03L841.57 -12.7L841.32 -17.3L840.86 -21.8L840.18 -26.21L839.28 -30.52L838.15 -34.72L836.81 -38.81L835.23 -42.79L833.43 -46.63L831.41 -50.35L829.15 -53.93L826.65 -57.37L823.93 -60.66L820.99 -63.76L817.88 -66.65L814.6 -69.33L811.16 -71.79L807.56 -74.04L803.81 -76.08L799.91 -77.92L795.87 -79.54L791.7 -80.96L787.41 -82.17L782.99 -83.17L778.46 -83.97L773.83 -84.57L769.09 -84.97L764.42 -85.16L799.77 -203.83L747.21 -194.91L711.86 -76.24L706.57 -74.36L701.08 -72.22L695.58 -69.9L690.06 -67.4L684.54 -64.71L679.03 -61.83L673.53 -58.77L668.05 -55.53L662.58 -52.11L657.15 -48.51L651.75 -44.73L646.39 -40.77L641.09 -36.64L635.83 -32.33L630.64 -27.84L625.56 -23.23L620.64 -18.54L615.9 -13.77L611.32 -8.93L606.91 -4.03L602.68 0.93L598.62 5.94L594.74 10.99L591.04 16.08L587.52 21.2L584.18 26.35L581.02 31.52L578.06 36.71L575.27 41.9L572.68 47.1L570.28 52.29L568.07 57.47L566.06 62.64L564.24 67.78L562.62 72.9L561.2 77.98L559.98 83.02L558.97 88.02L558.16 92.96L557.56 97.85L557.17 102.67L556.99 107.42L557.02 112.1L557.27 116.69L557.73 121.2L558.42 125.61L559.32 129.92L560.44 134.12L561.79 138.21L563.36 142.18L565.16 146.03L567.19 149.75L569.45 153.33L571.94 156.76L574.66 160.05L577.6 163.16L580.71 166.05L583.99 168.72L587.43 171.19L591.03 173.44L594.79 175.48L598.68 177.31L602.72 178.94L606.89 180.35L611.18 181.56L615.6 182.57L620.13 183.37L624.77 183.97L629.5 184.36L634.34 184.56L639.26 184.56L644.27 184.35L649.35 183.95L654.5 183.35L659.72 182.56L664.99 181.57L670.32 180.39L675.69 179.02L681.1 177.45L686.55 175.7L692.02 173.75L697.51 171.62L703.02 169.3L708.53 166.79L714.05 164.1L719.56 161.23L725.06 158.17L730.55 154.93L736.01 151.51L741.44 147.91L746.84 144.13L752.2 140.17L757.51 136.03L762.76 131.72L767.96 127.24L773.04 122.63L777.95 117.93ZM735.21 102.97L731.94 105.52L728.63 107.96L725.3 110.29L721.95 112.52L718.58 114.63L715.19 116.63L711.8 118.51L708.4 120.29L704.99 121.95L701.59 123.49L698.19 124.93L694.81 126.24L691.43 127.44L688.07 128.53L684.73 129.49L681.42 130.34L678.13 131.07L674.88 131.68L671.66 132.17L668.48 132.54L665.34 132.78L662.25 132.91L659.22 132.91L656.23 132.79L653.31 132.55L650.45 132.18L647.65 131.68L644.93 131.06L642.28 130.31L639.71 129.44L637.22 128.44L634.81 127.31L632.5 126.05L630.27 124.66L628.15 123.14L626.13 121.49L624.21 119.7L622.4 117.79L620.71 115.76L619.18 113.64L617.78 111.43L616.53 109.14L615.42 106.76L614.45 104.31L613.62 101.79L612.93 99.19L612.37 96.54L611.95 93.81L611.66 91.03L611.51 88.2L611.49 85.32L611.6 82.38L611.84 79.41L612.21 76.39L612.71 73.34L613.34 70.26L614.09 67.15L614.96 64.01L615.96 60.86L617.08 57.68L618.33 54.49L619.69 51.3L621.17 48.09L622.77 44.89L624.49 41.68L626.32 38.48L628.27 35.29L630.33 32.12L632.5 28.95L634.79 25.81L637.18 22.7L639.68 19.61L642.29 16.55L645.01 13.52L647.84 10.54L650.77 7.6L653.8 4.7L656.93 1.85L660.14 -0.91L663.38 -3.57L666.66 -6.12L669.96 -8.57L673.29 -10.9L676.64 -13.12L680.01 -15.23L683.4 -17.23L686.79 -19.12L690.19 -20.89L693.6 -22.55L697 -24.1L700.4 -25.53L703.79 -26.85L707.16 -28.05L710.52 -29.13L713.86 -30.1L717.18 -30.94L720.46 -31.67L723.72 -32.28L726.94 -32.77L730.12 -33.14L733.25 -33.39L736.34 -33.51L739.38 -33.52L742.36 -33.39L745.28 -33.15L748.14 -32.78L750.94 -32.29L753.66 -31.67L756.31 -30.92L758.89 -30.04L761.38 -29.04L763.78 -27.91L766.1 -26.65L768.32 -25.26L770.44 -23.74L772.47 -22.09L774.39 -20.31L776.2 -18.39L777.88 -16.36L779.42 -14.24L780.81 -12.03L782.06 -9.74L783.17 -7.37L784.14 -4.92L784.97 -2.39L785.67 0.2L786.22 2.86L786.64 5.58L786.93 8.36L787.08 11.19L787.1 14.08L786.99 17.01L786.75 19.99L786.38 23L785.88 26.05L785.26 29.13L784.51 32.25L783.63 35.38L782.63 38.54L781.51 41.71L780.27 44.9L778.9 48.1L777.42 51.3L775.82 54.51L774.11 57.71L772.27 60.91L770.33 64.1L768.26 67.28L766.09 70.44L763.81 73.58L761.41 76.7L758.91 79.79L756.3 82.85L753.58 85.87L750.76 88.86L747.83 91.8L744.8 94.7L741.66 97.54L738.46 100.31L735.21 102.97Z" id="f3qStSLAZp"></path></defs><g><g><g><use xlink:href="#b6VTmA5fAF" opacity="1" fill="#ff3712" fill-opacity="1"></use></g><g><use xlink:href="#c2tHsJYFCQ" opacity="1" fill="#ffffff" fill-opacity="0.16"></use></g><g><use xlink:href="#a2T9L9dzYK" opacity="1" fill="#ffffff" fill-opacity="0.36"></use></g><g><use xlink:href="#bS6ibqWUr" opacity="1" fill="#ffffff" fill-opacity="0.1"></use></g><g><use xlink:href="#f3qStSLAZp" opacity="1" fill="#ffffff" fill-opacity="0.13"></use></g></g></g></svg>